<?xml version="1.0" encoding="utf-8"?>
<!-- Generator: Adobe Illustrator 25.3.1, SVG Export Plug-In . SVG Version: 6.00 Build 0)  -->
<svg version="1.1" id="Layer_1" xmlns="http://www.w3.org/2000/svg" xmlns:xlink="http://www.w3.org/1999/xlink" x="0px" y="0px"
	 viewBox="0 0 792 216" style="enable-background:new 0 0 792 216;" xml:space="preserve">
<style type="text/css">
	.st0{fill-rule:evenodd;clip-rule:evenodd;fill:#FFFFFF;}
	.st1{fill:#FFFFFF;}
</style>
<path class="st0" d="M135.19,36c-39.76,0-72,32.24-72,72c0,39.76,32.24,72,72,72c39.76,0,72-32.24,72-72
	C207.19,68.24,174.95,36,135.19,36z M110.22,149.38c0.24,0.42,0.37,0.92,0.35,1.44c-0.06,1.39-1.14,2.52-2.56,2.46
	c-0.98-0.05-1.87-0.54-2.7-1.06c-3.84-2.37-7.43-5.34-10.23-8.89c-0.82-1.04-1.58-2.13-2.26-3.27c-0.65-1.1-1.24-2.24-1.74-3.42
	c-0.49-1.15-0.9-2.33-1.22-3.54c-0.32-1.19-0.56-2.41-0.72-3.63c-0.15-1.23-0.23-2.46-0.21-3.7c0.01-1.25,0.11-2.5,0.28-3.73
	c0.18-1.26,0.43-2.5,0.77-3.72c4.04-14.94,20.26-27.38,32.99-28.97c10.99-1.37,13.91,5.72,7.26,10.9
	c-10.58,8.24-23.98,16.47-25.34,29.7C104.34,135.27,107,143.7,110.22,149.38z M182.57,128.73c-3.91,8.08-8.21,13.49-11.2,16.67
	c-8.91,9.92-22.85,16.42-35.73,11.08c-7.4-3.07-13.19-9.95-14.22-17.99c-1.92-15.01,15.52-23.7,24.72-32.2
	c5.63-5.21,11.8-13.22,8.92-21.38c-2.75-7.81-11.93-11.21-19.47-12c-7.44-0.77-15,0.76-21.74,3.92c-5.3,2.48-9.75,6.23-13.92,10.27
	c-1.38,1.34-2.7,2.76-4.13,4.04c-1.23,1.1-2.72,2.11-4.39,2.34c-2.5,0.34-4.88-1.48-4.56-4.12c0.52-4.27,3.55-7.99,6.21-11.18
	c1.65-1.97,3.42-3.83,5.3-5.57c4.25-3.92,9.14-7.17,14.39-9.6c12.75-5.9,27.6-7.06,41.08-3.08c10.59,3.13,21.07,10.49,22.94,22.08
	c0.4,2.46,0.39,4.97,0.04,7.44c-1.25,8.8-6.54,16.67-12.54,22.99c-6.38,6.72-14.51,11.12-21.24,17.39
	c-3.94,3.66-5.55,8.16-0.79,11.97c6.5,3.31,11.91,1.59,17.82-1.99c3.48-2.12,6.47-4.94,9.06-8.07c1.32-1.59,2.53-3.25,3.7-4.95
	c0.99-1.44,1.91-3.11,3.22-4.3c0.81-0.85,1.81-1.49,3.01-1.6c1.76-0.16,3.51,0.78,4.2,2.43
	C183.96,125.01,183.33,127.16,182.57,128.73z"/>
<g>
	<path class="st1" d="M255.62,104.51h0.2c3.53-6.35,9.58-9.17,16.74-9.17h3.53v17.64c-2.52-1.41-4.94-1.71-7.76-1.71
		c-10.18,0-12.7,6.76-12.7,15.63v20.87h-18.35V96.04h18.35V104.51z"/>
	<path class="st1" d="M342.35,121.95c0,17.54-14.52,27.52-31.15,27.52c-16.53,0-31.15-9.88-31.15-27.52s14.52-27.62,31.15-27.62
		C327.83,94.32,342.35,104.3,342.35,121.95z M299.4,121.95c0,6.55,4.33,11.59,11.8,11.59c7.46,0,11.8-5.04,11.8-11.59
		c0-6.35-4.34-11.7-11.8-11.7C303.74,110.25,299.4,115.59,299.4,121.95z"/>
	<path class="st1" d="M347.96,64.08h18.35v37c3.93-4.54,10.08-6.76,16.03-6.76c15.32,0,25.91,12.7,25.91,27.52
		c0,14.92-10.69,27.62-26.11,27.62c-6.05,0-12.3-2.32-15.63-7.46h-0.2v5.75h-18.35V64.08z M365.71,121.95
		c0,6.55,4.34,11.59,11.8,11.59c7.46,0,11.8-5.04,11.8-11.59c0-6.35-4.34-11.7-11.8-11.7C370.04,110.25,365.71,115.59,365.71,121.95
		z"/>
	<path class="st1" d="M475.67,121.95c0,17.54-14.52,27.52-31.15,27.52c-16.53,0-31.15-9.88-31.15-27.52s14.52-27.62,31.15-27.62
		S475.67,104.3,475.67,121.95z M432.73,121.95c0,6.55,4.34,11.59,11.8,11.59c7.46,0,11.8-5.04,11.8-11.59
		c0-6.35-4.34-11.7-11.8-11.7C437.06,110.25,432.73,115.59,432.73,121.95z"/>
	<path class="st1" d="M504.31,147.76h-18.35v-36.6h-6.45V96.04h6.45v-6.55c0-7.16,0.2-12.4,5.24-18.15
		c4.54-5.34,11.09-8.27,18.05-8.27c2.82,0,5.34,0.5,7.86,1.81v15.83c-2.12-0.91-4.03-1.71-6.45-1.71c-4.74,0-6.35,2.82-6.35,8.67
		v8.37h12.8v15.12h-12.8V147.76z"/>
	<path class="st1" d="M542.11,147.76h-18.35V64.08h18.35V147.76z"/>
	<path class="st1" d="M610.15,121.95c0,17.54-14.52,27.52-31.15,27.52c-16.53,0-31.15-9.88-31.15-27.52S562.36,94.32,579,94.32
		C595.63,94.32,610.15,104.3,610.15,121.95z M567.2,121.95c0,6.55,4.34,11.59,11.8,11.59c7.46,0,11.8-5.04,11.8-11.59
		c0-6.35-4.34-11.7-11.8-11.7C571.54,110.25,567.2,115.59,567.2,121.95z"/>
	<path class="st1" d="M639.89,124.06l13.01-28.03h10.89l13.01,28.03l13.01-28.03h20.26l-27.02,51.72h-11.9l-12.8-28.33l-12.8,28.33
		h-11.9l-27.02-51.72h20.37L639.89,124.06z"/>
</g>
</svg>
